<?xml version="1.0" encoding="utf-8"?>
<!-- Generator: Adobe Illustrator 15.0.0, SVG Export Plug-In . SVG Version: 6.00 Build 0)  -->
<!DOCTYPE svg PUBLIC "-//W3C//DTD SVG 1.1//EN" "http://www.w3.org/Graphics/SVG/1.1/DTD/svg11.dtd">
<svg version="1.1" id="Calque_1" xmlns="http://www.w3.org/2000/svg" xmlns:xlink="http://www.w3.org/1999/xlink" x="0px" y="0px"
	 width="425.199px" height="396.85px" viewBox="0 0 425.199 396.85" enable-background="new 0 0 425.199 396.85"
	 xml:space="preserve">
<path fill="#C1272D" d="M303.601,0H121.599C62.365,0,14.175,48.189,14.175,107.423v182.006c0,59.229,48.189,107.42,107.425,107.42
	h182.005c59.23,0,107.421-48.189,107.421-107.42V107.423C411.025,48.189,362.835,0,303.601,0z M212.6,306.935
	c-59.834,0-108.512-48.677-108.512-108.51c0-59.834,48.678-108.511,108.512-108.511s108.511,48.677,108.511,108.511
	C321.111,258.258,272.434,306.935,212.6,306.935z M323.705,115.504c-17.683,0-32.063-14.381-32.063-32.063
	c0-17.682,14.381-32.065,32.063-32.065c17.683,0,32.066,14.385,32.066,32.065C355.772,101.123,341.387,115.504,323.705,115.504z"/>
<path fill="#C1272D" d="M212.6,113.179c-47.003,0-85.245,38.24-85.245,85.246c0,47.002,38.242,85.245,85.245,85.245
	c47.005,0,85.245-38.243,85.245-85.245C297.845,151.419,259.605,113.179,212.6,113.179z"/>
<path fill="#C1272D" d="M323.705,74.643c-4.851,0-8.799,3.947-8.799,8.798c0,4.852,3.948,8.799,8.799,8.799
	c4.854,0,8.801-3.944,8.801-8.799C332.506,78.587,328.559,74.643,323.705,74.643z"/>
</svg>
